PathFileType	4	(X/Y/Z)	c:/Users/goper/Files/vsCode/490R/osim_files/C08/C08_Fast_05.trc
DataRate	CameraRate	NumFrames	NumMarkers	Units                	OrigDataRate	OrigDataStartFrame	OrigNumFrames
250.00	250.00	6	36	mm	250.0	1326	2121
                Frame#	Time	LPSIS			LASIS			LTH1			LTH2			LTH3			LTH4			LLFE			LMFE			LSH1			LSH2			LSH3			LSH4			LLMAL			LMMAL			LCAL			LMTP5			LTOE			LMTP1			RPSIS			RASIS			RTH1			RTH2			RTH3			RTH4			RLFE			RMFE			RSH1			RSH2			RSH3			RSH4			RLMAL			RMMAL			RCAL			RMTP1			RTOE			RMTP5		
		X1	Y1	Z1	X2	Y2	Z2	X3	Y3	Z3	X4	Y4	Z4	X5	Y5	Z5	X6	Y6	Z6	X7	Y7	Z7	X8	Y8	Z8	X9	Y9	Z9	X10	Y10	Z10	X11	Y11	Z11	X12	Y12	Z12	X13	Y13	Z13	X14	Y14	Z14	X15	Y15	Z15	X16	Y16	Z16	X17	Y17	Z17	X18	Y18	Z18	X19	Y19	Z19	X20	Y20	Z20	X21	Y21	Z21	X22	Y22	Z22	X23	Y23	Z23	X24	Y24	Z24	X25	Y25	Z25	X26	Y26	Z26	X27	Y27	Z27	X28	Y28	Z28	X29	Y29	Z29	X30	Y30	Z30	X31	Y31	Z31	X32	Y32	Z32	X33	Y33	Z33	X34	Y34	Z34	X35	Y35	Z35	X36	Y36	Z36

1326	5.30000	-2417.25195	1053.03040	205.09111	-2627.01685	1016.34943	276.06375	-2639.21899	752.10278	363.78384	-2671.31274	681.51465	351.77628	-2700.60547	613.24103	340.26642	-2740.00488	718.95093	331.33752	-2715.47559	568.88385	334.26544	-2732.13086	558.94586	207.79686	-2644.16235	460.94754	339.14178	-2644.30933	419.10916	348.09036	-2702.62354	451.06595	346.86575	-2693.21533	407.78345	349.48599	-2608.01660	137.28357	296.17328	-2647.67871	139.66997	217.77567	-2553.77563	121.90406	230.55048	-2704.77881	59.96189	346.37521	-2775.22827	75.92445	299.79160	-2749.46265	54.64081	244.28720	-2415.66016	1053.13354	145.07117	-2604.96191	1015.68646	42.36478	-2518.31421	751.63599	-4.58950	-2509.45459	674.40948	16.56418	-2498.15332	597.21216	30.49047	-2581.88330	671.54651	43.75454	-2491.88599	525.03589	47.65364	-2490.73340	524.03375	174.49280	-2425.50073	448.00375	34.80654	-2424.93457	403.75629	31.32526	-2486.02881	441.18564	42.67002	-2479.72217	397.27808	38.81076	-2383.25293	103.61319	102.41235	-2417.11621	109.37477	186.56735	-2325.21558	84.67835	171.80583	-2538.62769	44.01388	167.54108	-2555.17114	61.52870	114.19315	-2499.59473	46.35707	55.92933
1327	5.30400	-2422.33179	1052.53564	205.52068	-2632.30688	1015.36304	276.16132	-2644.70605	751.64996	363.18646	-2676.80786	681.12878	351.09433	-2706.23462	613.31775	340.04642	-2745.45166	718.63080	330.59045	-2721.29565	568.62830	333.52521	-2737.63354	558.47217	207.02745	-2651.86011	458.48480	338.79819	-2653.08398	417.54498	347.98526	-2710.45703	450.29398	346.46945	-2702.32202	406.65695	349.25043	-2624.09595	133.98581	296.29730	-2663.44946	137.27760	217.80637	-2570.67822	116.92817	230.73752	-2722.87817	59.47952	346.88574	-2792.94360	77.08939	300.40219	-2767.82739	54.98507	244.88692	-2420.45581	1052.62280	145.54247	-2609.46338	1014.89294	42.43668	-2521.08838	751.49298	-5.38882	-2512.08691	674.17798	16.59196	-2500.30908	597.10382	30.57900	-2584.54858	670.97253	43.72573	-2493.56934	524.96289	47.64650	-2492.69092	523.86938	174.47386	-2426.80151	448.21405	34.91452	-2425.83130	404.13748	31.50056	-2486.42505	440.29462	44.01825	-2480.55005	397.21494	39.00741	-2383.40796	103.73051	102.50729	-2417.42969	109.64318	186.64638	-2325.38257	85.08477	171.92616	-2538.98096	44.00433	167.53638	-2555.27295	61.37377	114.13779	-2499.63403	46.29724	55.89837
1328	5.30800	-2426.38892	1052.20166	205.68782	-2637.57349	1014.31531	276.28064	-2650.12109	751.19897	362.66635	-2682.20483	680.60925	350.38611	-2711.69409	612.91913	339.21713	-2750.82397	718.21411	329.85300	-2726.92310	568.20154	332.75574	-2743.10107	557.91156	206.30896	-2659.50391	455.92679	338.46716	0.00000	0.00000	0.00000	-2718.41553	449.28766	346.23566	-2711.30225	405.48657	348.99060	-2640.22192	130.86081	296.50375	-2679.85254	135.20439	217.99884	-2587.36255	112.20675	230.90057	-2740.92920	59.16744	347.33783	-2810.63477	78.44655	300.87845	-2785.57397	55.21100	245.34554	-2425.24561	1052.26501	146.05322	-2614.18652	1014.10028	41.84854	-2524.24707	751.35455	-5.37249	-2514.83569	674.09680	16.58133	-2502.59521	597.05225	30.62337	-2587.33423	670.45105	43.68473	-2495.40186	524.85754	47.67130	-2494.65112	523.74792	174.48416	-2428.32642	448.48251	35.01034	-2426.96118	404.41708	31.69007	-2488.72876	441.08771	42.59069	-2481.71436	397.18149	39.01947	-2381.40430	102.76369	103.77819	-2417.70288	109.85947	186.69312	-2325.06592	85.75030	171.91478	-2539.09912	44.08783	167.54652	-2555.36572	61.20566	114.09193	-2499.64331	46.27753	55.87600
1329	5.31200	-2432.44482	1051.39526	206.38861	-2642.70410	1013.22778	276.34763	-2655.34546	750.54956	362.12134	-2687.52417	680.03931	349.74646	-2717.41211	612.30853	338.76508	-2756.00635	717.66754	329.13687	-2732.33887	567.61523	332.07364	-2748.38379	557.23114	205.62378	-2667.18701	453.32770	338.23187	0.00000	0.00000	0.00000	-2726.22339	448.25372	345.91220	-2717.13110	403.25006	346.78241	-2656.36792	127.88512	296.76144	-2695.47925	133.18695	218.04286	-2603.85059	107.98145	230.79614	-2758.97778	59.12692	347.71045	-2828.19556	79.96416	301.21613	-2803.65088	55.92692	245.74234	-2430.10229	1051.70691	146.52568	-2618.78467	1013.28162	41.59378	-2527.51685	751.25165	-5.42682	-2517.63794	673.95642	16.57635	-2504.98291	596.99194	30.62586	-2590.12158	669.95166	43.62121	-2497.31787	524.73846	47.64148	-2496.82959	523.63910	174.55006	-2429.92212	448.78616	35.08540	-2428.37866	404.56662	31.70980	-2489.30151	440.23083	43.92190	-2482.99829	397.18036	39.00346	-2381.47852	102.91406	103.90269	-2418.03003	110.05070	186.74263	-2325.28467	86.13627	171.98473	-2538.98267	44.26704	167.49419	-2555.46143	61.05958	114.03095	-2499.66528	46.23290	55.82386
1330	5.31600	-2436.57983	1050.94019	206.56721	-2647.95679	1012.10071	276.48468	-2658.15308	749.84979	361.29099	-2692.67017	679.35730	349.14343	-2722.09033	611.58167	337.79022	-2761.06543	717.00934	328.47745	-2734.70093	565.77301	330.67554	-2753.58716	556.48370	204.99725	-2674.93604	450.72983	337.94382	0.00000	0.00000	0.00000	-2733.76782	447.26978	345.56824	-2725.63672	402.16409	346.30475	-2672.61743	125.09198	297.01630	-2708.82690	128.26709	219.76302	-2620.45239	103.47281	231.27771	-2776.99878	59.31292	348.00409	-2845.36060	81.62688	301.44376	-2822.22437	57.36528	246.02454	-2434.18848	1051.36157	146.78210	-2623.35303	1012.42639	41.36893	-2530.70728	751.00330	-5.39210	-2520.43872	673.79651	16.54774	-2507.47339	596.97198	30.61092	-2592.97485	669.41986	43.55064	-2499.34229	524.69080	47.66002	-2498.99463	523.51880	174.53957	-2431.17017	449.02325	34.28402	-2429.77930	404.61880	31.71636	-2492.00488	441.40335	41.95892	-2484.38818	397.17328	38.99467	-2385.51172	108.32467	100.53159	-2418.38818	110.25534	186.78391	-2326.04346	86.27988	172.21564	-2539.35547	44.25887	167.53064	-2555.63965	60.90128	113.92619	-2499.60352	46.26440	55.68252
1331	5.32000	-2442.69995	1050.08618	207.17285	-2653.18994	1010.98187	276.62045	-2663.12183	749.01526	360.69644	-2697.52759	678.44623	348.51205	-2727.38550	610.72784	337.40347	-2765.98438	716.19305	327.87073	-2742.76270	566.09656	330.87619	-2758.63623	555.67358	204.38835	-2682.50562	448.08405	337.69031	0.00000	0.00000	0.00000	-2741.40308	446.21323	345.29068	-2734.81494	400.81516	346.99304	-2688.78735	122.51293	297.31808	-2728.39258	128.61739	218.99127	-2636.04565	99.76050	232.44308	-2795.53296	59.66074	348.41443	-2862.65381	83.58233	301.48099	-2839.43921	58.28601	246.07370	-2438.45801	1050.83862	147.41783	-2627.96558	1011.57159	41.12613	-2533.97534	750.78088	-5.38901	-2523.40015	673.64825	16.43487	-2509.97021	596.89331	30.57056	-2595.90625	668.94116	43.47592	-2501.49146	524.61029	47.62160	-2501.28735	523.41565	174.54327	-2432.85132	449.27737	34.36806	-2431.39038	404.94748	31.85297	-2493.83130	441.51682	41.85468	-2485.83667	397.14481	38.99516	-2385.69409	108.58816	100.65579	-2418.76074	110.46972	186.83864	-2326.32788	86.75443	172.36247	-2539.49146	44.34005	167.51547	-2555.85156	60.62153	113.91103	-2499.60840	46.22428	55.63763
